<svg xmlns="http://www.w3.org/2000/svg" viewBox="0 0 18 18">
  <defs>
    <linearGradient id="bc5640fa-a1fb-4110-89bb-045246d1f8d9" x1="9" y1="10.211" x2="9" gradientUnits="userSpaceOnUse">
      <stop offset="0" stop-color="#552f99" />
      <stop offset="1" stop-color="#773adc" />
    </linearGradient>
    <linearGradient id="acd297c6-04e7-4f80-89a0-c52fc4a53edf" x1="9" y1="14.15" x2="9" y2="10.211" gradientUnits="userSpaceOnUse">
      <stop offset="0.15" stop-color="#cbcbca" />
      <stop offset="1" stop-color="#707171" />
    </linearGradient>
  </defs>
  <g id="a9cf7de9-7985-4e30-8337-9765bb4d2a0b">
    <g>
      <path d="M16.587,15.51c-.142.622-.919,1.235-2.322,1.712A19.16,19.16,0,0,1,3.5,17.236C2.211,16.781,1.513,16.2,1.4,15.6c-.019-.105,0-1.745,0-1.745l15.208-.141S16.6,15.434,16.587,15.51Z" fill="#699bd2" />
      <ellipse cx="9.001" cy="13.823" rx="7.611" ry="2.631" transform="translate(-0.138 0.091) rotate(-0.575)" fill="#75ceea" />
    </g>
    <rect x="1.342" width="15.316" height="10.211" rx="0.511" fill="url(#bc5640fa-a1fb-4110-89bb-045246d1f8d9)" />
    <path d="M12.072,13.3c-1.515-.239-1.574-1.328-1.574-3.089h-3c0,1.761-.051,2.85-1.566,3.089a.85.85,0,0,0-.757.85h7.658A.85.85,0,0,0,12.072,13.3Z" fill="url(#acd297c6-04e7-4f80-89a0-c52fc4a53edf)" />
    <g opacity="0.8">
      <polygon points="11.554 3.629 9.001 5.121 6.448 3.628 9.001 2.136 11.554 3.629" fill="#fff" />
      <polygon points="6.448 3.628 6.448 6.599 8.997 5.119 6.448 3.628" fill="#fff" opacity="0.8" />
      <polygon points="6.446 6.599 8.999 8.091 8.999 5.12 8.996 5.118 6.446 6.599" fill="#fff" />
      <polygon points="9.001 5.117 11.554 6.599 11.554 3.629 9.001 5.117" fill="#fff" opacity="0.6" />
      <polygon points="9.001 8.092 11.554 6.599 9.001 5.117 9.001 8.092" fill="#fff" opacity="0.8" />
    </g>
  </g>
</svg>