<svg xmlns="http://www.w3.org/2000/svg" viewBox="0 0 16 16">
  <g id="canvas">
    <path d="M16,0V16H0V0Z" fill="none" opacity="0" />
  </g>
  <g id="level-1">
    <path d="M14.91,8.538l-.744.721-.022.022-3,2.974a.348.348,0,0,1-.481-.5L13.9,8.538a.371.371,0,0,0,0-.5L10.733,4.93a.331.331,0,0,1-.083-.113.328.328,0,0,1,0-.274.331.331,0,0,1,.083-.113.344.344,0,0,1,.481,0l3.018,2.93.678.678a.4.4,0,0,1,0,.5Zm-12.748,0a.371.371,0,0,1,0-.5L5.267,4.93a.334.334,0,0,0,.084-.113.338.338,0,0,0,0-.274.334.334,0,0,0-.084-.113.344.344,0,0,0-.481,0L1.768,7.357l-.678.678a.4.4,0,0,0,0,.5l.678.765.022.022,3.061,2.93a.348.348,0,0,0,.481-.5Z" fill="#1ba1e2" />
    <path d="M5.464,14.9,7.65,8.494l-2.8-.022L7.147,2h4.264L8.568,6.351H11.5Z" fill="#fc0" />
    <path d="M5.464,14.9,9.618,7.4l-2.8-.022L9.181,2h2.23L8.568,6.351H11.5Z" fill="#fcb714" />
  </g>
</svg>