<svg xmlns="http://www.w3.org/2000/svg" viewBox="0 0 18 18">
  <defs>
    <linearGradient id="b19950b2-6050-407e-a94c-cdba184b6c8f" x1="14.329" y1="0.077" x2="14.329" y2="9.806" gradientUnits="userSpaceOnUse">
      <stop offset="0" stop-color="#faa21d" />
      <stop offset="0.999" stop-color="#f78d1e" />
    </linearGradient>
    <linearGradient id="f2f062eb-7ab5-4bfd-9b1e-2fc897c98e05" x1="7.458" y1="0.054" x2="7.458" y2="17.372" gradientUnits="userSpaceOnUse">
      <stop offset="0" stop-color="#999" />
      <stop offset="0.079" stop-color="#868686" />
      <stop offset="0.183" stop-color="#757575" />
      <stop offset="0.312" stop-color="#6a6a6a" />
      <stop offset="0.494" stop-color="#636363" />
      <stop offset="0.999" stop-color="#616161" />
    </linearGradient>
  </defs>
  <g id="f5640952-516b-41f5-8077-d13ae8c51335">
    <path d="M17.969,6.492v-.96a.284.284,0,0,0-.194-.27L16.44,4.818a.285.285,0,0,1-.174-.162l-.285-.695a.281.281,0,0,1,.005-.229l.6-1.285a.286.286,0,0,0-.056-.322l-.671-.671a.284.284,0,0,0-.33-.052l-1.252.636a.285.285,0,0,1-.237.009l-.7-.285A.289.289,0,0,1,13.19,1.6L12.7.249a.284.284,0,0,0-.268-.187h-.959a.285.285,0,0,0-.27.194l-.486,1.459-.028.011a4.579,4.579,0,0,1,.154.778c.042.371.069.752.083,1.133l0,0a2.665,2.665,0,0,1,1.793-.119,2.61,2.61,0,0,1,1.888,2.527h0a2.623,2.623,0,0,1-1.5,2.37l0,.006a7.138,7.138,0,0,1,.681,1.418c.032.088.06.179.085.27l.005,0,.186-.076a.283.283,0,0,1,.228.006l1.286.6a.285.285,0,0,0,.322-.056l.671-.67a.284.284,0,0,0,.052-.33l-.636-1.254a.288.288,0,0,1-.009-.237l.286-.693a.284.284,0,0,1,.165-.159l1.348-.49A.285.285,0,0,0,17.969,6.492Z" fill="url(#b19950b2-6050-407e-a94c-cdba184b6c8f)" />
    <path d="M14.814,14.848c-.221-.407-.559-.666-.66-1.12-.113-.47-.193-.986-.71-1.17,1.042-2.915-1.919-4.861-2.851-7.24-.258-1.665.273-3.866-1.339-4.97C7.925-.433,5.523.063,5.194,1.8c-.412,1.333.2,2.886-.35,4.19-.975,2.072-3.1,3.835-2.83,6.35-.364.676-1.1.941-1.68,1.3-.445.486,0,1.377-.23,1.97A.972.972,0,0,0,1.054,17a9.715,9.715,0,0,1,2.78.75,1.678,1.678,0,0,0,1.85-.56,6.438,6.438,0,0,1,3.69-.17c1,1.791,2.635.794,3.67-.37C13.621,16.117,15.276,15.943,14.814,14.848Z" fill="url(#f2f062eb-7ab5-4bfd-9b1e-2fc897c98e05)" />
    <path d="M11.173,11.247c-.248.086-.55.355-.529.632-1.161.641-.78,2.214-1.125,3.3v.01c-.984,1.051-3.3,1.251-4.125-.124,1.411-.627-.743-2.467-1.547-2.665a4.358,4.358,0,0,1,.9-3.376c-.37-.772.255-1.5.579-2.164.078-.142-.073-.5.107-.562.5.484,1.068,1.532,1.934.941,1.8-1.112,1.939-1.453,2.593.818.085.3.032.413.239.624C10.911,9.392,10.888,10.332,11.173,11.247ZM6.714,4.078c.038-2.052-1.743-1.094-.99.4.062.2.281.052.3-.07,0-.086-.122-.023-.16-.09-.644-1,.8-1.352.59-.12Zm.79.11.37.14c-.281-.536.325-1.372.81-.77.281.33-.033.668.09.94.283.1.455-.064.45-.36C9.348,2.3,7.092,2.242,7.5,4.188Z" fill="#fff" />
    <path d="M5.316,16.215c-.028,1.022-1.292.986-1.969.634-.719-.411-1.549-.284-2.286-.589-.39-.276.008-.811-.027-1.2-.04-.48-.233-1.146.412-1.275.5-.143.75-.594,1.1-.906a.626.626,0,0,1,.906.22c.437.616.754,1.285,1.205,1.891.137.224.32.408.457.633A1,1,0,0,1,5.316,16.215Zm8.794-1.2a4.6,4.6,0,0,1-.739-1.556.337.337,0,0,0-.062-.115c-.874-1.01-1.895,1.478-2.488-.677-.092.16-.235.261-.3.44-.275.819-.158,1.733-.492,2.55a2.749,2.749,0,0,0-.107.633.979.979,0,0,0,1.337.941c.847-.23,1.208-1.126,2.022-1.442a6.338,6.338,0,0,0,.581-.282c.122-.081.279-.193.272-.36A.344.344,0,0,0,14.11,15.01ZM9.124,4.928a.573.573,0,0,0-.11-.11,1.176,1.176,0,0,0-.3-.1c-.29-.05-.51-.27-.79-.34-.02,0-.04-.02-.05-.05l-.37-.14a.442.442,0,0,1-.17-.02.5.5,0,0,0-.13-.04c-.15-.06-.34.05-.49-.05l-.26.12a.236.236,0,0,1-.08.09,1.336,1.336,0,0,0-.21.2.27.27,0,0,1-.07.08.935.935,0,0,1-.19.14.9.9,0,0,0-.35.31.3.3,0,0,0-.02.1.309.309,0,0,0,.02.08.555.555,0,0,1,.06.08c.52.39.47,1.3,1.34,1.19a4.818,4.818,0,0,0,2.17-1.15c.01-.04.02-.08.03-.11s.01-.08.01-.13A.241.241,0,0,0,9.124,4.928Z" fill="#ffca00" />
  </g>
</svg>