<svg viewBox="0 0 28 28" fill="none" xmlns="http://www.w3.org/2000/svg">
<path d="M20.7232 1.40625H1.33632C0.950583 1.40625 0.637878 1.71895 0.637878 2.10469V14.5834C0.637878 14.9691 0.950583 15.2818 1.33632 15.2818H20.7232C21.1089 15.2818 21.4217 14.9691 21.4217 14.5834V2.10469C21.4217 1.71895 21.1089 1.40625 20.7232 1.40625Z" fill="#005BA1"/>
<path d="M23.9012 4.23145H4.5143C4.12856 4.23145 3.81586 4.54415 3.81586 4.92989V17.4086C3.81586 17.7943 4.12856 18.107 4.5143 18.107H23.9012C24.2869 18.107 24.5996 17.7943 24.5996 17.4086V4.92989C24.5996 4.54415 24.2869 4.23145 23.9012 4.23145Z" fill="#0078D4"/>
<path d="M26.6653 7.45703H7.27846C6.89272 7.45703 6.58002 7.76974 6.58002 8.15548V20.6341C6.58002 21.0199 6.89272 21.3326 7.27846 21.3326H26.6653C27.0511 21.3326 27.3638 21.0199 27.3638 20.6341V8.15548C27.3638 7.76974 27.0511 7.45703 26.6653 7.45703Z" fill="url(#paint0_linear_5218_41675)"/>
<path d="M21.0824 25.4229C19.026 25.0946 19.026 23.6137 19.026 21.3115H14.9147C14.9147 23.6962 14.9147 25.1755 12.8598 25.4229C12.5781 25.4663 12.3207 25.6074 12.1327 25.8216C11.9447 26.0358 11.8381 26.3093 11.8315 26.5942H22.1107C22.1041 26.3093 21.9975 26.0358 21.8095 25.8216C21.6215 25.6074 21.3641 25.4663 21.0824 25.4229Z" fill="url(#paint1_linear_5218_41675)"/>
<path d="M16.7256 18.8903C19.3183 18.8903 21.4202 16.7884 21.4202 14.1956C21.4202 11.6029 19.3183 9.50098 16.7256 9.50098C14.1328 9.50098 12.0309 11.6029 12.0309 14.1956C12.0309 16.7884 14.1328 18.8903 16.7256 18.8903Z" fill="url(#paint2_linear_5218_41675)"/>
<path d="M19.488 12.667V15.8699L16.7207 17.4783V14.2708L19.488 12.667Z" fill="#50E6FF"/>
<path d="M19.4882 12.6666L16.7208 14.2751L13.9535 12.6651L16.7208 11.0566L19.4882 12.6666Z" fill="#C3F1FF"/>
<path d="M16.7286 14.2876L16.7006 17.4905L13.9457 15.8572L13.9737 12.6543L16.7286 14.2876Z" fill="#9CEBFF"/>
<path d="M20.4402 10.5952C20.3694 10.5251 20.2738 10.4858 20.1742 10.4858C20.0746 10.4858 19.979 10.5251 19.9082 10.5952C19.8365 10.668 19.7963 10.766 19.7963 10.8682C19.7963 10.9704 19.8365 11.0684 19.9082 11.1412C20.6347 11.87 21.0884 12.8264 21.1933 13.8501C21.2983 14.8737 21.048 15.9023 20.4844 16.7633C19.9209 17.6243 19.0784 18.2653 18.0983 18.5788C17.1182 18.8923 16.0601 18.8592 15.1015 18.4851C14.1429 18.1109 13.3421 17.4185 12.8335 16.524C12.3249 15.6294 12.1394 14.5872 12.3081 13.5721C12.4768 12.557 12.9894 11.6308 13.76 10.9488C14.5306 10.2669 15.5123 9.87072 16.5404 9.82675L16.486 10.1207C16.4821 10.1456 16.4848 10.1709 16.4939 10.1944C16.5029 10.2178 16.518 10.2384 16.5375 10.2542C16.5571 10.2699 16.5804 10.2803 16.6052 10.2842C16.63 10.288 16.6554 10.2853 16.6789 10.2763L18.1255 9.72719C18.157 9.71518 18.1848 9.69505 18.206 9.66884C18.2273 9.64264 18.2412 9.61129 18.2464 9.57797C18.2516 9.54465 18.2479 9.51055 18.2357 9.47911C18.2235 9.44768 18.2032 9.42003 18.1769 9.39897L16.9557 8.45319C16.9358 8.4377 16.9121 8.42772 16.8871 8.42423C16.862 8.42075 16.8365 8.42388 16.8131 8.43332C16.7896 8.44276 16.7691 8.45818 16.7534 8.47804C16.7378 8.49791 16.7276 8.52152 16.724 8.54652L16.6509 9.06141C15.4403 9.07953 14.2733 9.51572 13.3476 10.296C12.422 11.0763 11.7946 12.1527 11.572 13.3428C11.3493 14.5328 11.5451 15.7632 12.126 16.8254C12.7069 17.8876 13.6373 18.7162 14.7594 19.1707C15.8815 19.6253 17.1263 19.6778 18.2827 19.3194C19.4391 18.961 20.4359 18.2137 21.1043 17.2043C21.7726 16.1948 22.0713 14.9852 21.9497 13.7807C21.8281 12.5761 21.2937 11.4507 20.4371 10.5952H20.4402Z" fill="white"/>
<defs>
<linearGradient id="paint0_linear_5218_41675" x1="16.9711" y1="21.3544" x2="16.9711" y2="7.45703" gradientUnits="userSpaceOnUse">
<stop stop-color="#0078D4"/>
<stop offset="0.817" stop-color="#5EA0EF"/>
</linearGradient>
<linearGradient id="paint1_linear_5218_41675" x1="16.9711" y1="26.5942" x2="16.9711" y2="21.2291" gradientUnits="userSpaceOnUse">
<stop offset="0.15" stop-color="#CCCCCC"/>
<stop offset="1" stop-color="#707070"/>
</linearGradient>
<linearGradient id="paint2_linear_5218_41675" x1="16.7256" y1="6.65587" x2="16.7256" y2="18.8499" gradientUnits="userSpaceOnUse">
<stop stop-color="#0078D4"/>
<stop offset="1" stop-color="#005BA1"/>
</linearGradient>
</defs>
</svg>
