<svg xmlns="http://www.w3.org/2000/svg" viewBox="0 0 18 18">
  <defs>
    <linearGradient id="a63b8344-5938-4d36-9201-4c486eb02841" x1="9" x2="9" y2="18" gradientUnits="userSpaceOnUse">
      <stop offset="0.002" stop-color="#37c2b1" />
      <stop offset="1" stop-color="#3cd4c2" />
    </linearGradient>
    <linearGradient id="f9b46fae-ea12-4d56-9a56-5e000cdd6276" x1="8.959" y1="0.117" x2="8.959" y2="17.976" gradientUnits="userSpaceOnUse">
      <stop offset="0.001" stop-color="#42e8ca" />
      <stop offset="1" stop-color="#3cd4c2" />
    </linearGradient>
  </defs>
  <g id="a6c7ddda-122b-4650-877c-08800b13d80b">
    <path id="bb5f6998-5bfb-4437-95d5-dd6d8b30215b" d="M15.045,3.562l.087.086a.157.157,0,0,0,.211.009l.829-.7L17.686.474a.157.157,0,0,0-.023-.193L17.428.046a.158.158,0,0,0-.2-.02L14.857,1.608l-.667.868a.157.157,0,0,0,.013.206l.091.091L9.372,7.845,8.358,6.793,7.231,7.957a2.02,2.02,0,0,1-.526,1.616,1.78,1.78,0,0,1-1.54.563L.38,15.029a.314.314,0,0,0,0,.436L2.722,17.9a.314.314,0,0,0,.452,0l4.733-4.912a1.926,1.926,0,0,1,.564-1.616,1.779,1.779,0,0,1,1.54-.563l1.127-1.165L10.124,8.6Z" fill="url(#a63b8344-5938-4d36-9201-4c486eb02841)" />
    <path d="M16.988,14.708l-1.173-1.2L8.343,5.788h0l-.371-.4A4.165,4.165,0,0,0,7,1.3,3.864,3.864,0,0,0,3.521.181a.157.157,0,0,0-.084.265L5.393,2.435a.158.158,0,0,1,.04.148l-.52,2.043a.157.157,0,0,1-.11.113l-2,.552a.157.157,0,0,1-.154-.042L.737,3.273a.157.157,0,0,0-.268.081A4.115,4.115,0,0,0,1.547,6.931a3.8,3.8,0,0,0,3.8,1.014l.075.076.419.435h0l8.56,8.957a1.772,1.772,0,0,0,2.5.087q.045-.042.087-.087a1.871,1.871,0,0,0,.526-1.353A2.036,2.036,0,0,0,16.988,14.708Z" fill="url(#f9b46fae-ea12-4d56-9a56-5e000cdd6276)" />
  </g>
</svg>