<svg width="18" height="18" viewBox="0 0 18 18" fill="none" xmlns="http://www.w3.org/2000/svg">
<path fill-rule="evenodd" clip-rule="evenodd" d="M9 15.7957C12.2009 15.7957 14.7957 13.2009 14.7957 10C14.7957 6.79912 12.2009 4.2043 9 4.2043C5.79912 4.2043 3.2043 6.79912 3.2043 10C3.2043 13.2009 5.79912 15.7957 9 15.7957ZM9 17C12.866 17 16 13.866 16 10C16 6.13401 12.866 3 9 3C5.13401 3 2 6.13401 2 10C2 13.866 5.13401 17 9 17Z" fill="#26A8C5"/>
<path d="M5.0107 3.25398L9.00201 1L12.9866 3.25398L9.00201 5.50891L5.0107 3.25398Z" fill="#9CEBFF"/>
<path d="M13 3.24461V7.7385L8.99614 10V5.49859L13 3.24461Z" fill="#32BEDD"/>
<path d="M8.99614 5.5061V10L5 7.7385V3.24461L8.99614 5.5061Z" fill="#50E6FF"/>
<path d="M1.00793 10.7531L4.00141 9L6.98982 10.7531L4.00141 12.5069L1.00793 10.7531Z" fill="#CAF4FF"/>
<path d="M7.00001 10.7458V14.2411L3.99712 16V12.4989L7.00001 10.7458Z" fill="#8FCDDE"/>
<path d="M3.99709 12.5048V16L1 14.2411V10.7458L3.99709 12.5048Z" fill="#BCE0E9"/>
<path d="M11.008 10.7531L14.0015 9L16.9899 10.7531L14.0015 12.5069L11.008 10.7531Z" fill="#76D8F1"/>
<path d="M17 10.7458V14.2411L13.9971 16V12.4989L17 10.7458Z" fill="#5BBAD2"/>
<path d="M13.9971 12.5048V16L11 14.2411V10.7458L13.9971 12.5048Z" fill="#6FCDE4"/>
</svg>
